<svg width="452" height="452" viewBox="0 0 452 452" fill="none" xmlns="http://www.w3.org/2000/svg">
<circle cx="226" cy="226" r="226" fill="#036EB6"/>
<circle cx="226" cy="226" r="226" stroke="#036EB6"/>
<path d="M178.684 335.303C175.975 338.033 173.288 339.99 170.622 341.175C167.977 342.36 165.406 342.952 162.91 342.952C160.709 342.952 158.572 342.508 156.499 341.619C154.446 340.73 152.616 339.45 151.008 337.779C149.421 336.107 148.141 334.065 147.167 331.653C146.215 329.22 145.739 326.469 145.739 323.401C145.739 320.016 146.258 316.948 147.294 314.197C148.352 311.447 149.791 309.098 151.611 307.151C153.452 305.184 155.62 303.671 158.117 302.613C160.614 301.555 163.322 301.036 166.242 301.058C167.385 301.058 168.538 301.142 169.702 301.312C170.865 301.481 171.976 301.714 173.034 302.01C174.092 302.285 175.055 302.613 175.922 302.994C176.811 303.375 177.53 303.787 178.081 304.231C178.165 304.295 178.155 304.507 178.049 304.866C177.964 305.226 177.816 305.67 177.604 306.199C177.393 306.707 177.15 307.268 176.875 307.881C176.599 308.474 176.314 309.045 176.018 309.595C175.743 310.145 175.478 310.632 175.224 311.055C174.97 311.478 174.759 311.775 174.589 311.944L172.209 311.436C171.151 309.299 169.934 307.776 168.559 306.866C167.205 305.935 165.756 305.48 164.211 305.501C163.132 305.501 162.032 305.755 160.91 306.263C159.789 306.771 158.773 307.659 157.863 308.929C156.953 310.198 156.213 311.912 155.642 314.07C155.07 316.207 154.785 318.926 154.785 322.227C154.785 324.893 155.123 327.178 155.8 329.083C156.477 330.966 157.355 332.51 158.435 333.716C159.514 334.922 160.73 335.811 162.084 336.382C163.439 336.954 164.793 337.239 166.147 337.239C166.718 337.239 167.395 337.186 168.178 337.081C168.961 336.954 169.807 336.731 170.717 336.414C171.648 336.097 172.632 335.663 173.669 335.113C174.727 334.542 175.795 333.812 176.875 332.923C176.98 333.007 177.118 333.166 177.287 333.399C177.478 333.632 177.657 333.886 177.827 334.161C178.017 334.415 178.186 334.658 178.334 334.891C178.504 335.102 178.62 335.24 178.684 335.303ZM210.517 322.037C210.517 319.857 210.263 317.763 209.755 315.752C209.269 313.721 208.56 311.944 207.629 310.42C206.719 308.876 205.619 307.649 204.328 306.739C203.059 305.808 201.641 305.342 200.075 305.342C198.679 305.342 197.441 305.713 196.362 306.453C195.304 307.173 194.415 308.23 193.696 309.627C192.976 311.023 192.437 312.737 192.077 314.769C191.717 316.779 191.538 319.074 191.538 321.656C191.538 324.026 191.802 326.237 192.331 328.289C192.86 330.341 193.579 332.129 194.489 333.653C195.42 335.155 196.499 336.34 197.727 337.208C198.954 338.075 200.266 338.509 201.662 338.509C202.932 338.509 204.106 338.181 205.185 337.525C206.285 336.848 207.227 335.832 208.01 334.478C208.793 333.124 209.406 331.41 209.851 329.336C210.295 327.263 210.517 324.83 210.517 322.037ZM219.562 321.465C219.562 323.391 219.319 325.253 218.833 327.051C218.367 328.85 217.701 330.553 216.833 332.161C215.987 333.748 214.971 335.208 213.786 336.541C212.601 337.853 211.279 338.985 209.819 339.937C208.38 340.889 206.835 341.63 205.185 342.159C203.556 342.688 201.863 342.952 200.107 342.952C197.399 342.952 194.955 342.391 192.775 341.27C190.596 340.149 188.745 338.646 187.221 336.763C185.698 334.88 184.523 332.711 183.698 330.257C182.894 327.802 182.492 325.242 182.492 322.576C182.492 319.699 182.958 316.958 183.889 314.356C184.841 311.753 186.174 309.468 187.888 307.5C189.602 305.533 191.643 303.967 194.013 302.803C196.404 301.639 199.049 301.058 201.948 301.058C204.804 301.058 207.322 301.639 209.501 302.803C211.702 303.946 213.543 305.469 215.024 307.374C216.526 309.278 217.658 311.457 218.42 313.912C219.182 316.366 219.562 318.884 219.562 321.465ZM236.343 342V336.54C250.123 325.815 261.173 316.13 261.173 308.46C261.173 303.585 257.663 300.595 252.918 300.595C248.368 300.595 245.183 302.87 241.218 306.965L235.628 301.57C240.633 295.98 246.808 292.925 253.308 292.925C263.253 292.925 270.533 298.385 270.533 308.135C270.533 317.495 262.083 325.75 251.683 334.525C254.283 334.265 256.558 334.07 258.898 334.07H272.613V342H236.343Z" fill="white"/>
<path d="M239.44 125.432C251.715 125.43 263.558 129.802 272.698 137.708C281.837 145.615 287.629 156.499 288.963 168.273L289.453 172.641C289.571 173.751 290.062 174.795 290.849 175.612C291.637 176.429 292.68 176.978 293.819 177.172L298.308 177.964C304.207 179.07 309.51 182.153 313.282 186.668C317.254 191.338 319.438 197.186 319.464 203.228C319.395 210.091 316.638 216.674 311.748 221.658C309.445 224.05 306.664 225.965 303.572 227.29C300.481 228.614 297.143 229.321 293.761 229.365H159.001C155.622 229.329 152.286 228.622 149.203 227.289C146.119 225.955 143.353 224.022 141.077 221.612C136.179 216.633 133.422 210.046 133.361 203.182C133.379 197.412 135.238 191.788 138.686 187.074C142.011 182.388 146.863 178.909 152.472 177.188L156.674 175.888C157.738 175.565 158.671 174.928 159.34 174.065C160.009 173.204 160.38 172.161 160.401 171.084L160.481 166.835C160.611 162.07 162.574 157.522 165.987 154.077C167.539 152.44 169.422 151.127 171.52 150.219C173.619 149.311 175.887 148.829 178.187 148.8C180.467 148.802 182.726 149.229 184.838 150.059L189.364 151.826C190.488 152.266 191.734 152.323 192.897 151.987C194.058 151.65 195.066 150.941 195.754 149.977L198.528 146.118C203.103 139.732 209.216 134.513 216.343 130.91C223.468 127.307 231.395 125.427 239.44 125.432ZM239.44 114.405C229.535 114.397 219.776 116.712 211.002 121.149C202.229 125.587 194.704 132.015 189.076 139.88C185.594 138.501 181.866 137.79 178.102 137.789C170.322 138.059 162.95 141.214 157.522 146.598C152.094 151.982 149.028 159.18 148.963 166.691C141.064 169.277 134.204 174.19 129.35 180.736C124.497 187.282 121.893 195.133 121.907 203.182C121.853 212.824 125.698 222.106 132.624 229.055C139.551 236.004 149.014 240.074 159.001 240.397H293.798C303.198 240.104 312.16 236.494 318.986 230.251C325.811 224.008 330.026 215.566 330.832 206.524C331.637 197.483 328.977 188.471 323.355 181.195C317.734 173.919 309.542 168.887 300.332 167.05C298.682 152.578 291.557 139.202 280.321 129.484C269.086 119.766 254.529 114.39 239.44 114.385V114.405Z" fill="white"/>
</svg>
