<svg width="452" height="452" viewBox="0 0 452 452" fill="none" xmlns="http://www.w3.org/2000/svg">
<circle cx="226" cy="226" r="226" fill="#036EB6"/>
<circle cx="226" cy="226" r="226" stroke="#036EB6"/>
<path d="M223.648 364.344C223.544 365.464 223.427 366.688 223.297 368.016C223.167 369.318 223.023 370.581 222.867 371.805C222.711 373.003 222.555 374.07 222.398 375.008C222.268 375.945 222.151 376.609 222.047 377H184.039V373.758C185.81 373.393 187.125 373.003 187.984 372.586C188.87 372.143 189.312 371.74 189.312 371.375V333.445C189.312 333.133 188.896 332.742 188.062 332.273C187.255 331.805 185.914 331.388 184.039 331.023V327.781H219.43L221.109 329.148C221.057 329.826 220.979 330.711 220.875 331.805C220.771 332.898 220.641 334.018 220.484 335.164C220.328 336.31 220.159 337.391 219.977 338.406C219.82 339.422 219.664 340.177 219.508 340.672H216.188C216.057 338.25 215.732 336.349 215.211 334.969C214.69 333.562 213.948 332.859 212.984 332.859H200.25V348.289H215.68L217.086 349.773C216.878 350.138 216.617 350.568 216.305 351.062C216.018 351.557 215.706 352.065 215.367 352.586C215.055 353.081 214.729 353.536 214.391 353.953C214.078 354.37 213.779 354.682 213.492 354.891C213.102 354.5 212.672 354.174 212.203 353.914C211.76 353.654 211.24 353.432 210.641 353.25C210.068 353.068 209.378 352.938 208.57 352.859C207.789 352.781 206.852 352.742 205.758 352.742H200.25V369.422C200.25 369.812 200.341 370.164 200.523 370.477C200.706 370.763 201.083 371.023 201.656 371.258C202.229 371.466 203.036 371.635 204.078 371.766C205.12 371.87 206.5 371.922 208.219 371.922H211.695C212.893 371.922 213.909 371.766 214.742 371.453C215.602 371.115 216.357 370.594 217.008 369.891C217.659 369.188 218.245 368.289 218.766 367.195C219.312 366.102 219.859 364.786 220.406 363.25L223.648 364.344ZM267.789 368.758C264.456 372.117 261.148 374.526 257.867 375.984C254.612 377.443 251.448 378.172 248.375 378.172C245.667 378.172 243.036 377.625 240.484 376.531C237.958 375.438 235.706 373.862 233.727 371.805C231.773 369.747 230.198 367.234 229 364.266C227.828 361.271 227.242 357.885 227.242 354.109C227.242 349.943 227.88 346.167 229.156 342.781C230.458 339.396 232.229 336.505 234.469 334.109C236.734 331.688 239.404 329.826 242.477 328.523C245.549 327.221 248.883 326.583 252.477 326.609C253.883 326.609 255.302 326.714 256.734 326.922C258.167 327.13 259.534 327.417 260.836 327.781C262.138 328.12 263.323 328.523 264.391 328.992C265.484 329.461 266.37 329.969 267.047 330.516C267.151 330.594 267.138 330.854 267.008 331.297C266.904 331.74 266.721 332.286 266.461 332.938C266.201 333.562 265.901 334.253 265.562 335.008C265.224 335.737 264.872 336.44 264.508 337.117C264.169 337.794 263.844 338.393 263.531 338.914C263.219 339.435 262.958 339.799 262.75 340.008L259.82 339.383C258.518 336.753 257.021 334.878 255.328 333.758C253.661 332.612 251.878 332.052 249.977 332.078C248.648 332.078 247.294 332.391 245.914 333.016C244.534 333.641 243.284 334.734 242.164 336.297C241.044 337.859 240.133 339.969 239.43 342.625C238.727 345.255 238.375 348.602 238.375 352.664C238.375 355.945 238.792 358.758 239.625 361.102C240.458 363.419 241.539 365.32 242.867 366.805C244.195 368.289 245.693 369.383 247.359 370.086C249.026 370.789 250.693 371.141 252.359 371.141C253.062 371.141 253.896 371.076 254.859 370.945C255.823 370.789 256.865 370.516 257.984 370.125C259.13 369.734 260.341 369.201 261.617 368.523C262.919 367.82 264.234 366.922 265.562 365.828C265.693 365.932 265.862 366.128 266.07 366.414C266.305 366.701 266.526 367.013 266.734 367.352C266.969 367.664 267.177 367.964 267.359 368.25C267.568 368.51 267.711 368.68 267.789 368.758Z" fill="white"/>
<path d="M225.766 264.265C216.764 264.519 207.812 262.694 199.484 258.905C191.155 255.116 183.633 249.448 177.399 242.261C171.014 235.029 166.009 226.451 162.681 217.037C159.354 207.624 157.771 197.566 158.027 187.463C158.027 171.86 163.637 154.888 174.858 136.549C189.38 114.305 206.498 94.2821 225.766 77C245.037 94.2894 262.154 114.321 276.675 136.573C287.896 154.908 293.506 171.879 293.506 187.487C293.76 197.586 292.175 207.639 288.848 217.048C285.52 226.457 280.516 235.032 274.134 242.261C267.9 249.448 260.378 255.116 252.05 258.905C243.721 262.694 234.769 264.519 225.766 264.265ZM225.766 250.219C233.096 250.441 240.386 248.962 247.168 245.878C253.949 242.794 260.071 238.173 265.139 232.313C270.321 226.374 274.376 219.348 277.066 211.65C279.757 203.952 281.028 195.736 280.805 187.487C280.805 175.158 276.113 161.152 266.728 145.469C255.076 127 241.307 110.279 225.766 95.7254C210.226 110.279 196.457 127 184.805 145.469C175.42 161.152 170.728 175.158 170.728 187.487C170.505 195.736 171.776 203.952 174.467 211.65C177.157 219.348 181.213 226.374 186.394 232.313C191.462 238.173 197.584 242.794 204.365 245.878C211.147 248.962 218.437 250.441 225.766 250.219Z" fill="white"/>
<path d="M224.9 229.114L215.233 223.021L232.699 189.223H199.401L226.361 137.05L236.028 143.143L218.563 176.941H251.888L224.9 229.114Z" fill="white"/>
</svg>
