<svg width="452" height="452" viewBox="0 0 452 452" fill="none" xmlns="http://www.w3.org/2000/svg">
<circle cx="226" cy="226" r="226" fill="#036EB6"/>
<circle cx="226" cy="226" r="226" stroke="#036EB6"/>
<path d="M192.4 317.16V321.128H212.24V317.16H192.4ZM192.4 307.432V311.336H212.24V307.432H192.4ZM185.232 301.224H219.792V327.336H185.232V301.224ZM179.28 350.248H224.016V356.904H179.28V350.248ZM181.84 333.736L187.984 331.624C190.416 336.168 192.528 342.184 193.296 346.216L186.704 348.584C186.128 344.552 184.08 338.344 181.84 333.736ZM216.4 331.368L223.824 333.416C221.584 338.664 218.96 344.552 216.848 348.328L211.152 346.408C213.072 342.312 215.312 335.976 216.4 331.368ZM193.424 328.872H200.464V353.96H193.424V328.872ZM204.304 328.872H211.408V353.96H204.304V328.872ZM167.568 305L171.728 299.368C175.632 300.84 180.688 303.464 183.248 305.64L178.768 311.912C176.464 309.736 171.536 306.792 167.568 305ZM163.728 321.256L168.016 315.688C171.984 317.352 177.232 320.168 179.792 322.472L175.312 328.616C172.944 326.312 167.824 323.176 163.728 321.256ZM165.136 352.808C167.824 347.944 171.6 340.008 174.48 332.648L180.496 337.064C178 343.72 174.864 351.016 171.92 357.224L165.136 352.808ZM242 316.648H286.48V322.728H242V316.648ZM242.512 335.336H277.648V341.352H242.512V335.336ZM250.704 312.424H257.936V326.952H269.648V312.424H277.2V332.776H250.704V312.424ZM275.664 335.336H277.136L278.48 335.016L283.28 337.448C276.368 351.336 260.88 356.648 242.896 358.888C242.32 356.968 240.912 354.088 239.696 352.488C256.08 351.08 270.48 346.536 275.664 336.296V335.336ZM255.632 340.008C261.392 347.176 273.36 351.08 288.08 352.36C286.48 353.96 284.56 357.032 283.6 358.952C268.048 357.032 256.208 351.912 249.04 342.376L255.632 340.008ZM256.016 298.664H264.016V308.264H256.016V298.664ZM236.816 304.424H286.8V311.272H236.816V304.424ZM233.04 304.424H240.4V322.472C240.4 332.904 239.44 348.648 233.616 358.568C232.272 357.288 229.072 355.176 227.28 354.344C232.656 345.256 233.04 331.88 233.04 322.472V304.424Z" fill="white"/>
<path d="M225.397 276.719C215.222 276.906 205.114 275.028 195.681 271.201C186.249 267.374 177.685 261.674 170.506 254.446C163.191 247.473 157.4 239.053 153.5 229.72C149.6 220.386 147.676 210.344 147.85 200.227C147.822 190.148 149.843 180.169 153.789 170.899C157.708 161.624 163.433 153.225 170.629 146.192L225.397 92.1577L280.165 146.192C287.36 153.225 293.085 161.624 297.004 170.899C300.951 180.169 302.971 190.148 302.944 200.227C303.118 210.344 301.194 220.386 297.294 229.72C293.394 239.053 287.603 247.473 280.288 254.446C273.108 261.674 264.545 267.374 255.112 271.201C245.68 275.028 235.572 276.906 225.397 276.719ZM162.391 200.221H288.428C288.459 192.13 286.851 184.116 283.7 176.666C280.613 169.312 276.128 162.63 270.494 156.993L225.422 112.552L180.349 156.993C174.714 162.631 170.228 169.316 167.143 176.672C163.985 184.119 162.368 192.13 162.391 200.221Z" fill="white"/>
</svg>
