<svg width="452" height="452" viewBox="0 0 452 452" fill="none" xmlns="http://www.w3.org/2000/svg">
<circle cx="226" cy="226" r="226" fill="#036EB6"/>
<circle cx="226" cy="226" r="226" stroke="#036EB6"/>
<path d="M174.547 379V375.758C176.318 375.393 177.633 375.003 178.492 374.586C179.378 374.143 179.82 373.74 179.82 373.375V334.156C177.841 334.391 176.083 334.651 174.547 334.938L174 330.953C175.458 330.615 177.086 330.302 178.883 330.016C180.706 329.729 182.581 329.482 184.508 329.273C186.461 329.065 188.427 328.909 190.406 328.805C192.385 328.674 194.26 328.609 196.031 328.609C199.13 328.609 201.956 328.909 204.508 329.508C207.06 330.107 209.247 330.992 211.07 332.164C212.893 333.336 214.299 334.781 215.289 336.5C216.305 338.219 216.812 340.198 216.812 342.438C216.812 345.146 216.279 347.529 215.211 349.586C214.143 351.643 212.776 353.362 211.109 354.742C209.469 356.122 207.659 357.164 205.68 357.867C203.727 358.544 201.852 358.883 200.055 358.883C198.857 358.883 197.659 358.792 196.461 358.609C195.289 358.401 194.26 358.102 193.375 357.711L192.086 353.219C193.154 353.714 194.065 354.039 194.82 354.195C195.576 354.326 196.409 354.391 197.32 354.391C198.414 354.391 199.469 354.195 200.484 353.805C201.5 353.414 202.385 352.802 203.141 351.969C203.922 351.135 204.534 350.068 204.977 348.766C205.445 347.464 205.68 345.888 205.68 344.039C205.68 342.294 205.393 340.745 204.82 339.391C204.273 338.01 203.479 336.852 202.438 335.914C201.422 334.977 200.185 334.273 198.727 333.805C197.268 333.31 195.628 333.062 193.805 333.062C193.336 333.062 192.841 333.076 192.32 333.102C191.799 333.102 191.279 333.115 190.758 333.141V373.375C190.758 373.531 190.836 373.701 190.992 373.883C191.148 374.065 191.461 374.26 191.93 374.469C192.398 374.677 193.049 374.885 193.883 375.094C194.742 375.302 195.849 375.523 197.203 375.758V379H174.547ZM221.109 379V375.758C222.88 375.393 224.195 375.003 225.055 374.586C225.94 374.143 226.383 373.74 226.383 373.375V335.445C226.383 335.133 225.966 334.742 225.133 334.273C224.326 333.805 222.984 333.388 221.109 333.023V329.781H242.594V333.023C240.823 333.388 239.495 333.792 238.609 334.234C237.75 334.677 237.32 335.081 237.32 335.445V350.68H256.461V335.445C256.461 335.133 256.044 334.742 255.211 334.273C254.404 333.805 253.062 333.388 251.188 333.023V329.781H272.672V333.023C270.901 333.388 269.573 333.792 268.688 334.234C267.828 334.677 267.398 335.081 267.398 335.445V373.375C267.398 373.688 267.802 374.078 268.609 374.547C269.443 374.99 270.797 375.393 272.672 375.758V379H251.188V375.758C252.958 375.393 254.273 375.003 255.133 374.586C256.018 374.143 256.461 373.74 256.461 373.375V355.758H237.32V373.375C237.32 373.688 237.724 374.078 238.531 374.547C239.339 374.99 240.693 375.393 242.594 375.758V379H221.109Z" fill="white"/>
<path d="M217.187 275.292C207.811 274.936 198.602 272.786 190.094 268.967C181.587 265.147 173.95 259.735 167.627 253.044C154.522 239.313 147.49 221.185 148.029 202.525C148.029 187.696 154.139 171.568 166.358 154.139C182.172 133 200.813 113.971 221.796 97.5471C242.78 113.978 261.421 133.015 277.234 154.162C289.453 171.587 295.563 187.715 295.563 202.547V205.663C295.563 206.705 295.487 207.747 295.335 208.778H281.503C281.655 207.747 281.731 206.705 281.731 205.663V202.547C281.731 190.83 276.621 177.52 266.402 162.616C253.713 145.064 238.719 129.174 221.796 115.343C204.872 129.174 189.878 145.064 177.189 162.616C166.97 177.52 161.86 190.83 161.86 202.547C161.452 217.619 167.064 232.266 177.534 243.455C182.559 248.901 188.647 253.337 195.45 256.51C202.253 259.682 209.638 261.529 217.182 261.944L217.187 275.292ZM231.019 275.512V222.121H266.057C267.515 222.096 268.962 222.36 270.31 222.895C271.658 223.431 272.877 224.228 273.894 225.236C274.939 226.218 275.764 227.394 276.32 228.695C276.875 229.996 277.148 231.392 277.123 232.799V247.039C277.148 248.445 276.875 249.842 276.32 251.143C275.765 252.444 274.939 253.621 273.894 254.602C272.878 255.61 271.658 256.407 270.31 256.943C268.962 257.479 267.515 257.742 266.057 257.717H242.079V275.512H231.019ZM285.884 275.512V222.121H296.949V241.92H321.846V222.121H332.911V275.512H321.846V252.598H296.949V275.512H285.884ZM242.084 247.039H266.063V232.799H242.084V247.039Z" fill="white"/>
</svg>
