<svg width="452" height="452" viewBox="0 0 452 452" fill="none" xmlns="http://www.w3.org/2000/svg">
<circle cx="226" cy="226" r="226" fill="#036EB6"/>
<circle cx="226" cy="226" r="226" stroke="#036EB6"/>
<path d="M224.45 266.155C218.366 266.251 212.327 265.142 206.705 262.897C201.082 260.651 195.996 257.316 191.759 253.099C187.392 249.008 183.94 244.094 181.615 238.664C179.29 233.234 178.142 227.401 178.241 221.526C178.197 213.655 180.298 205.912 184.332 199.073C188.343 192.187 194.115 186.407 201.097 182.288V112.157C201.041 109.187 201.615 106.237 202.784 103.488C203.952 100.74 205.691 98.2516 207.892 96.1762C210.029 94.0479 212.596 92.3659 215.434 91.2343C218.271 90.1026 221.319 89.5454 224.388 89.597C227.467 89.5476 230.525 90.1056 233.373 91.2369C236.221 92.3681 238.8 94.0489 240.952 96.1762C243.169 98.243 244.922 100.728 246.102 103.478C247.281 106.227 247.863 109.182 247.809 112.157V182.288C254.79 186.408 260.562 192.187 264.574 199.073C268.61 205.912 270.712 213.654 270.67 221.526C270.769 227.401 269.621 233.234 267.296 238.664C264.971 244.094 261.519 249.008 257.153 253.099C252.914 257.318 247.826 260.653 242.201 262.899C236.577 265.144 230.535 266.253 224.45 266.155ZM224.478 251.685C228.564 251.755 232.621 251.01 236.395 249.497C240.169 247.983 243.579 245.733 246.412 242.888C249.335 240.103 251.643 236.774 253.192 233.101C254.741 229.429 255.501 225.49 255.426 221.526C255.464 215.485 253.89 209.537 250.854 204.255C247.937 199.041 243.285 194.93 237.65 192.586L232.57 190.378V112.157C232.596 111.121 232.403 110.09 232.001 109.128C231.599 108.166 230.998 107.294 230.234 106.566C229.479 105.828 228.577 105.247 227.581 104.859C226.585 104.471 225.518 104.284 224.444 104.31C223.371 104.284 222.303 104.471 221.308 104.859C220.312 105.247 219.409 105.828 218.655 106.566C217.891 107.294 217.289 108.166 216.887 109.128C216.485 110.09 216.292 111.121 216.319 112.157V190.384L211.239 192.591C205.604 194.936 200.952 199.047 198.034 204.26C194.999 209.542 193.425 215.49 193.463 221.531C193.388 225.498 194.151 229.439 195.706 233.112C197.26 236.785 199.574 240.113 202.505 242.894C205.346 245.738 208.763 247.986 212.544 249.499C216.324 251.012 220.386 251.756 224.478 251.685Z" fill="white"/>
<path d="M192.424 306.015V309.727H209.768V306.015H192.424ZM192.424 296.479V300.191H209.768V296.479H192.424ZM185.256 290.207H217.32V315.999H185.256V290.207ZM183.144 319.775H219.496V342.687H212.264V326.239H208.616V342.687H202.92V326.239H199.272V342.687H193.64V326.239H190.056V342.687H183.144V319.775ZM178.28 339.231H223.144V345.887H178.28V339.231ZM166.76 293.919L170.856 288.415C174.76 290.015 180.2 292.767 182.888 294.815L178.536 300.959C176.04 298.783 170.728 295.775 166.76 293.919ZM162.728 311.327L166.632 305.759C170.664 307.295 176.168 310.047 178.856 312.031L174.76 318.239C172.2 316.191 166.824 313.183 162.728 311.327ZM164.008 341.791C167.08 336.991 171.432 328.991 174.76 321.631L180.584 326.239C177.576 332.895 173.992 340.255 170.536 346.463L164.008 341.791ZM241 305.631H285.48V311.711H241V305.631ZM241.512 324.319H276.648V330.335H241.512V324.319ZM249.704 301.407H256.936V315.935H268.648V301.407H276.2V321.759H249.704V301.407ZM274.664 324.319H276.136L277.48 323.999L282.28 326.431C275.368 340.319 259.88 345.631 241.896 347.871C241.32 345.951 239.912 343.071 238.696 341.471C255.08 340.063 269.48 335.519 274.664 325.279V324.319ZM254.632 328.991C260.392 336.159 272.36 340.063 287.08 341.343C285.48 342.943 283.56 346.015 282.6 347.935C267.048 346.015 255.208 340.895 248.04 331.359L254.632 328.991ZM255.016 287.647H263.016V297.247H255.016V287.647ZM235.816 293.407H285.8V300.255H235.816V293.407ZM232.04 293.407H239.4V311.455C239.4 321.887 238.44 337.631 232.616 347.551C231.272 346.271 228.072 344.159 226.28 343.327C231.656 334.239 232.04 320.863 232.04 311.455V293.407Z" fill="white"/>
</svg>
