<svg width="452" height="452" viewBox="0 0 452 452" fill="none" xmlns="http://www.w3.org/2000/svg">
<circle cx="226" cy="226" r="226" fill="#036EB6"/>
<circle cx="226" cy="226" r="226" stroke="#036EB6"/>
<path d="M165.264 302.361H183.12V310.105H165.264V302.361ZM190.16 286.745H198.288V336.857C198.288 341.465 197.328 343.769 194.64 345.177C191.888 346.521 187.664 346.841 181.84 346.841C181.52 344.473 179.984 340.569 178.768 338.265C182.992 338.457 187.024 338.457 188.432 338.457C189.712 338.393 190.16 338.009 190.16 336.793V286.745ZM180.496 302.361H182.096L183.44 302.105L188.752 304.025C185.808 321.497 178.768 334.553 169.616 341.273C168.272 339.481 165.136 336.345 163.28 335.193C172.048 329.305 178.32 318.169 180.496 304.025V302.361ZM197.84 296.089C201.936 313.049 210.32 328.153 224.656 335.001C222.736 336.601 220.048 339.801 218.768 342.169C203.92 333.785 196.304 317.145 191.76 297.369L197.84 296.089ZM215.76 296.665L222.992 301.721C217.552 307.481 210.704 313.945 205.328 317.977L199.824 313.625C205.008 309.337 211.792 302.361 215.76 296.665ZM263.12 287.513H270.864V302.553H263.12V287.513ZM248.016 298.265H286.992V305.497H248.016V298.265ZM252.432 309.657L259.344 308.441C261.52 316.569 263.504 326.937 263.888 333.209L256.336 334.809C256.08 328.537 254.48 317.913 252.432 309.657ZM274.064 308.057L282.384 309.401C280.272 319.769 277.136 331.673 274.512 339.225L267.6 337.753C270.16 329.881 272.848 317.401 274.064 308.057ZM246.672 336.793H288.272V344.089H246.672V336.793ZM242.256 286.809L249.488 289.177C245.136 299.993 238.032 311.385 230.8 318.553C230.16 316.697 228.048 312.473 226.768 310.553C232.848 304.921 238.8 295.897 242.256 286.809ZM236.112 304.537L243.344 297.241L243.408 297.305V346.585H236.112V304.537Z" fill="white"/>
<path d="M219.033 198.82C213.139 198.818 207.273 199.624 201.613 201.214C195.945 202.804 190.497 205.052 185.389 207.91L187.95 230.18H262.419L265.322 205.437H262.25C258.359 205.462 254.472 205.159 250.636 204.529C247.106 203.923 242.267 202.796 236.12 201.147C233.344 200.392 230.52 199.813 227.666 199.414C224.806 199.019 221.922 198.82 219.033 198.82ZM184.189 197.171C189.564 194.524 195.234 192.476 201.089 191.069C206.955 189.644 212.98 188.923 219.029 188.922C222.428 188.922 225.823 189.143 229.191 189.583C232.455 190.004 235.681 190.666 238.841 191.563C244.662 193.103 249.116 194.148 252.201 194.698C255.457 195.266 258.759 195.546 262.068 195.535H266.336L275.22 118.004H175.119L184.189 197.171ZM187.946 240.061C185.413 240.092 182.959 239.215 181.056 237.6C180.096 236.819 179.305 235.862 178.729 234.785C178.152 233.707 177.802 232.53 177.698 231.322L163.692 108.094H286.668L272.663 231.318C272.558 232.527 272.208 233.703 271.632 234.781C271.056 235.858 270.264 236.814 269.304 237.596C267.402 239.211 264.947 240.088 262.414 240.057L187.946 240.061Z" fill="white"/>
</svg>
