<svg width="452" height="452" viewBox="0 0 452 452" fill="none" xmlns="http://www.w3.org/2000/svg">
<circle cx="226" cy="226" r="226" fill="#036EB6"/>
<circle cx="226" cy="226" r="226" stroke="#036EB6"/>
<path d="M165.264 316.344H183.12V324.088H165.264V316.344ZM190.16 300.728H198.288V350.84C198.288 355.448 197.328 357.752 194.64 359.16C191.888 360.504 187.664 360.824 181.84 360.824C181.52 358.456 179.984 354.552 178.768 352.248C182.992 352.44 187.024 352.44 188.432 352.44C189.712 352.376 190.16 351.992 190.16 350.776V300.728ZM180.496 316.344H182.096L183.44 316.088L188.752 318.008C185.808 335.48 178.768 348.536 169.616 355.256C168.272 353.464 165.136 350.328 163.28 349.176C172.048 343.288 178.32 332.152 180.496 318.008V316.344ZM197.84 310.072C201.936 327.032 210.32 342.136 224.656 348.984C222.736 350.584 220.048 353.784 218.768 356.152C203.92 347.768 196.304 331.128 191.76 311.352L197.84 310.072ZM215.76 310.648L222.992 315.704C217.552 321.464 210.704 327.928 205.328 331.96L199.824 327.608C205.008 323.32 211.792 316.344 215.76 310.648ZM257.424 319.032V322.744H274.768V319.032H257.424ZM257.424 309.496V313.208H274.768V309.496H257.424ZM250.256 303.224H282.32V329.016H250.256V303.224ZM248.144 332.792H284.496V355.704H277.264V339.256H273.616V355.704H267.92V339.256H264.272V355.704H258.64V339.256H255.056V355.704H248.144V332.792ZM243.28 352.248H288.144V358.904H243.28V352.248ZM231.76 306.936L235.856 301.432C239.76 303.032 245.2 305.784 247.888 307.832L243.536 313.976C241.04 311.8 235.728 308.792 231.76 306.936ZM227.728 324.344L231.632 318.776C235.664 320.312 241.168 323.064 243.856 325.048L239.76 331.256C237.2 329.208 231.824 326.2 227.728 324.344ZM229.008 354.808C232.08 350.008 236.432 342.008 239.76 334.648L245.584 339.256C242.576 345.912 238.992 353.272 235.536 359.48L229.008 354.808Z" fill="white"/>
<path d="M225.768 242.061C227.766 242.181 229.756 241.736 231.51 240.774C232.156 240.367 232.681 239.795 233.03 239.117C233.38 238.44 233.543 237.681 233.501 236.92C233.535 236.144 233.37 235.372 233.021 234.677C232.673 233.982 232.153 233.386 231.51 232.947C229.706 231.891 227.624 231.403 225.537 231.548C218.412 231.378 211.476 229.232 205.506 225.351C201.873 222.874 198.827 219.635 196.581 215.86C194.334 212.086 192.942 207.868 192.5 203.5C192.225 202.155 191.476 200.952 190.39 200.108C189.402 199.289 188.162 198.835 186.877 198.821C186.099 198.788 185.325 198.953 184.629 199.3C183.932 199.649 183.335 200.167 182.895 200.808C182.45 201.381 182.135 202.044 181.973 202.75C181.811 203.457 181.805 204.19 181.956 204.899C182.607 210.525 184.422 215.954 187.287 220.843C190.152 225.731 194.004 229.972 198.599 233.297C206.56 238.889 216.032 241.945 225.768 242.061ZM226 271.977C216.036 272.231 206.129 270.408 196.912 266.625C187.694 262.842 179.369 257.182 172.469 250.008C165.403 242.786 159.864 234.221 156.181 224.821C152.498 215.423 150.746 205.381 151.03 195.293C151.03 179.714 157.239 162.768 169.658 144.457C185.73 122.248 204.675 102.256 226 85C247.327 102.263 266.272 122.263 282.343 144.481C294.761 162.789 300.971 179.733 300.971 195.317C301.251 205.401 299.498 215.438 295.815 224.833C292.132 234.227 286.594 242.789 279.531 250.008C272.632 257.182 264.306 262.842 255.089 266.625C245.871 270.408 235.964 272.231 226 271.977ZM226 257.953C234.113 258.175 242.181 256.698 249.686 253.619C257.191 250.539 263.966 245.925 269.575 240.075C275.31 234.144 279.799 227.129 282.776 219.443C285.753 211.756 287.16 203.554 286.914 195.317C286.914 183.007 281.721 169.023 271.335 153.364C258.439 134.923 243.2 118.228 226 103.697C208.8 118.228 193.562 134.923 180.666 153.364C170.28 169.023 165.087 183.007 165.087 195.317C164.84 203.554 166.247 211.756 169.225 219.443C172.202 227.129 176.69 234.144 182.425 240.075C188.034 245.925 194.809 250.539 202.315 253.619C209.82 256.698 217.889 258.175 226 257.953Z" fill="white"/>
</svg>

