    <svg
            width="35"
            height="30"
            viewBox="0 0 134 129"
            fill="none"
            xmlns="http://www.w3.org/2000/svg"
          >
            <g
              id="&#227;&#130;&#176;&#227;&#131;&#171;&#227;&#131;&#188;&#227;&#131;&#151; 144"
            >
              <g id="Clip path group">
                <mask
                  id="mask0_2_399"
                  style="mask-type: luminance"
                  maskUnits="userSpaceOnUse"
                  x="0"
                  y="0"
                  width="134"
                  height="129"
                >
                  <g id="clip-path-5">
                    <path
                      id="&#233;&#149;&#183;&#230;&#150;&#185;&#229;&#189;&#162; 153"
                      d="M133.862 0.0898438H0.0770264V128.152H133.862V0.0898438Z"
                      fill="white"
                    />
                  </g>
                </mask>
                <g mask="url(#mask0_2_399)">
                  <g
                    id="&#227;&#130;&#176;&#227;&#131;&#171;&#227;&#131;&#188;&#227;&#131;&#151; 84"
                  >
                    <path
                      id="&#227;&#131;&#145;&#227;&#130;&#185; 20"
                      d="M133.856 31.2568C133.938 26.6462 132.978 22.0766 131.047 17.8891C129.116 13.7016 126.264 10.0045 122.704 7.07374C119.143 4.14297 114.967 2.05431 110.487 0.963686C106.006 -0.126934 101.337 -0.191329 96.8283 0.77531C92.3194 1.74195 88.0872 3.71465 84.4475 6.54611C80.8079 9.37758 77.8549 12.9947 75.809 17.1273C73.7631 21.2599 72.6772 25.8013 72.6324 30.4124C72.5875 35.0235 73.5849 39.5852 75.55 43.7568C81.677 57.1648 97.583 74.2038 97.583 91.8778C97.583 99.997 94.3577 107.784 88.6165 113.525C82.8754 119.266 75.0887 122.491 66.9695 122.491C58.8503 122.491 51.0637 119.266 45.3225 113.525C39.5814 107.784 36.356 99.997 36.356 91.8778C36.356 74.2028 52.266 57.1648 58.388 43.7588C60.3539 39.5871 61.352 35.0251 61.3077 30.4136C61.2634 25.802 60.1778 21.2601 58.1321 17.1269C56.0864 12.9937 53.1334 9.37603 49.4936 6.54408C45.8537 3.71212 41.6212 1.73904 37.1119 0.772164C32.6026 -0.194713 27.9332 -0.130402 23.4523 0.960297C18.9714 2.051 14.7947 4.1399 11.2343 7.07102C7.67385 10.0021 4.82158 13.6997 2.89047 17.8877C0.959363 22.0757 -0.000681445 26.6458 0.0820273 31.2568C0.0433439 35.36 0.938959 39.4181 2.70103 43.1238L2.71603 43.1578C3.54015 45.0095 4.54714 46.7743 5.72203 48.4258C7.84351 51.5341 10.1912 54.4817 12.746 57.2448C45.524 93.3898 31.706 115.14 19.677 128.152H114.268C102.235 115.14 88.418 93.3938 121.195 57.2518C123.75 54.4889 126.098 51.5412 128.219 48.4328C129.394 46.7817 130.401 45.0172 131.225 43.1658C132.997 39.4513 133.899 35.3813 133.86 31.2658"
                      fill="white"
                    />
                  </g>
                </g>
              </g>
            </g>
          </svg>