<svg id="グループ_124" data-name="グループ 124" xmlns="http://www.w3.org/2000/svg" xmlns:xlink="http://www.w3.org/1999/xlink" width="262.21" height="46.901" viewBox="0 0 262.21 46.901">
  <defs>
    <clipPath id="clip-path">
      <rect id="長方形_166" data-name="長方形 166" width="262.21" height="46.901" fill="#fff"/>
    </clipPath>
  </defs>
  <g id="グループ_88" data-name="グループ 88" clip-path="url(#clip-path)">
    <path id="パス_21" data-name="パス 21" d="M135.555,14.938H123.323a.312.312,0,0,0-.328.33V33.612a5.619,5.619,0,0,1-.6,2.846,3.12,3.12,0,0,1-1.676,1.4,8.1,8.1,0,0,1-2.7.386,5.9,5.9,0,0,1-3.724-1.011q-1.277-1.011-1.277-3.618V15.268c0-.21-.054-.33-.345-.33h-12.2a.3.3,0,0,0-.327.329V33.984q0,7.848,4.469,12.01t13.406,4.163q8.938,0,13.393-4.163t4.456-12.01v-18.7a.3.3,0,0,0-.314-.343" transform="translate(-61.242 -9.135)" fill="#fff"/>
    <path id="パス_22" data-name="パス 22" d="M235.13,12.736a15.118,15.118,0,0,0-6.451,1.21,9.315,9.315,0,0,0-4.163,4.1,23.93,23.93,0,0,0-2.314,7.6c-.062.38-.367.316-.367.316s-.293-.026-.26-.413,1.157-11.427,1.177-11.623c.022-.219-.065-.333-.246-.333H210.2c-.223,0-.284.093-.284.333V54.36c0,.233.1.33.33.33h12.217c.224,0,.328-.091.328-.33V47.928s-.766-8.463-.766-8.841c0-.349.2-.38.261-.388s.315-.019.377.331c1.149,6.495,5.168,9.75,12.152,9.75a12.766,12.766,0,0,0,6.8-1.676,10.616,10.616,0,0,0,4.19-5.64,31.722,31.722,0,0,0,1.463-10.693q0-9.257-3.192-13.646a10.417,10.417,0,0,0-8.938-4.389M228.34,38.53a5.621,5.621,0,0,1-5.913-6.02V29.754c0-3.772,2.261-6.165,5.913-6.165,4.348,0,6.174,2.393,6.174,7.4s-1.739,7.543-6.174,7.543" transform="translate(-128.37 -7.789)" fill="#fff"/>
    <path id="パス_23" data-name="パス 23" d="M335.489,12.736a20.531,20.531,0,0,0-9.19,2.048,15.916,15.916,0,0,0-6.637,6.065,17.954,17.954,0,0,0-2.474,9.6q0,9.444,4.695,13.9t14.271,4.456a21.056,21.056,0,0,0,9.377-2.075,16.178,16.178,0,0,0,6.743-6.078,17.585,17.585,0,0,0,2.5-9.51q0-9.442-4.774-13.925t-14.511-4.482m.362,25.794a5.621,5.621,0,0,1-5.913-6.02V29.754c0-3.772,2.261-6.165,5.913-6.165,4.348,0,6.175,2.393,6.175,7.4s-1.74,7.543-6.175,7.543" transform="translate(-193.974 -7.789)" fill="#fff"/>
    <path id="パス_24" data-name="パス 24" d="M449.29,28.209a11.365,11.365,0,0,1-2.984.466,6.6,6.6,0,0,1-2.607-.413,2.411,2.411,0,0,1-1.3-1.29,6.092,6.092,0,0,1-.373-2.341V16.386c0-.02.006-.027.028-.027h6.266c.266,0,.34-.118.358-.329.144-1.732.808-9.726.823-9.9a.286.286,0,0,0-.309-.333h-7.136c-.02,0-.029-.009-.029-.028V.329A.292.292,0,0,0,441.695,0H429.463a.291.291,0,0,0-.314.329v5.35a.111.111,0,0,1-.126.12H425.39a.33.33,0,0,0-.311.361v9.871c0,.263.059.329.33.329h3.713c.022,0,.027.011.027.026V28.3q0,6.624,3.724,9.536t10.108,2.939a36.5,36.5,0,0,0,6.693-.761c.257-.059.328-.124.318-.4-.009-.243-.31-9.224-.376-11.174-.008-.239-.122-.294-.327-.238" transform="translate(-259.954)" fill="#fff"/>
    <path id="パス_25" data-name="パス 25" d="M526.265,28.209a11.364,11.364,0,0,1-2.984.466,6.6,6.6,0,0,1-2.606-.413,2.411,2.411,0,0,1-1.3-1.29A6.087,6.087,0,0,1,519,24.632V16.386c0-.02.006-.027.028-.027h6.266c.266,0,.34-.118.358-.329.144-1.732.809-9.726.823-9.9a.286.286,0,0,0-.308-.333h-7.137c-.02,0-.029-.009-.029-.028V.329A.292.292,0,0,0,518.67,0H506.438a.291.291,0,0,0-.314.329v5.35A.111.111,0,0,1,506,5.8h-3.633a.33.33,0,0,0-.311.361v9.871c0,.263.059.329.33.329H506.1c.023,0,.027.011.027.026V28.3q0,6.624,3.724,9.536t10.108,2.939a36.5,36.5,0,0,0,6.693-.761c.257-.059.328-.124.318-.4-.009-.243-.31-9.224-.376-11.174-.008-.239-.122-.294-.327-.238" transform="translate(-307.027)" fill="#fff"/>
    <path id="パス_26" data-name="パス 26" d="M612.262,14.932Q607.793,11,598.344,11a23.945,23.945,0,0,0-10.432,2.019,14.276,14.276,0,0,0-6.192,5.425,17.047,17.047,0,0,0-2,8.565c0,.233.1.341.29.371.178.028,10.87,1.589,12.506,1.823.159.023.194-.03.164-.176a5.692,5.692,0,0,1-.12-1.47,5.05,5.05,0,0,1,1.6-4,5.976,5.976,0,0,1,4.105-1.413,6.562,6.562,0,0,1,4.078,1.077,2.848,2.848,0,0,1,1.386,2.833,3.138,3.138,0,0,1-1.279,2.455,12.2,12.2,0,0,1-3.284,1.467c-1.337.4-13.157,2.25-15.843,4.172a7.151,7.151,0,0,0-2.638,5.978q0,7.377,9.907,7.376a13.757,13.757,0,0,0,8.615-2.719q3.528-2.7,4.615-8.183c.005-.027.016-.027.016,0a62.418,62.418,0,0,1-.435,7,8.884,8.884,0,0,1-.746,2.8c-.117.192-.023.238.168.238H616.4c.247,0,.33-.111.33-.331V26.75q0-7.887-4.469-11.818m-8.534,19.632a.193.193,0,0,1-.035.092A11.293,11.293,0,0,1,600,37.869a9.652,9.652,0,0,1-4.294.915,4.609,4.609,0,0,1-2.759-.673,2.188,2.188,0,0,1-.9-1.857,2.661,2.661,0,0,1,.457-1.6,3.911,3.911,0,0,1,1.575-1.144,18.768,18.768,0,0,1,3.244-1.023c1.615-.394,2.872-.8,3.81-1.1a7.32,7.32,0,0,0,2.426-1.075c.081-.066.171-.1.171.037Z" transform="translate(-354.521 -6.728)" fill="#fff"/>
    <path id="パス_27" data-name="パス 27" d="M31.112,30.874q-2.486-2.153-7.827-2.9l-2.26-.239-1.222-.08a47.882,47.882,0,0,1-5.462-.651,7.014,7.014,0,0,1-2.737-1,1.881,1.881,0,0,1-.811-1.569A2.116,2.116,0,0,1,12,22.462a6.831,6.831,0,0,1,3.23-.651A7.157,7.157,0,0,1,19.51,22.98a3.951,3.951,0,0,1,1.571,2.946c.037.218.1.322.381.267l10.6-2.059a.36.36,0,0,0,.314-.4,10.037,10.037,0,0,0-4.6-8.188Q23.47,12.8,16.107,12.8a25.042,25.042,0,0,0-8.253,1.262,12.5,12.5,0,0,0-5.741,3.854A9.826,9.826,0,0,0,0,24.336a11.531,11.531,0,0,0,1,5.09,7.525,7.525,0,0,0,2.99,3.216,14.939,14.939,0,0,0,5.13,1.715s3.181.39,3.535.425q4.226.293,6.14.571a7.8,7.8,0,0,1,2.685.745,1.548,1.548,0,0,1,.771,1.422,2.064,2.064,0,0,1-1.183,2.033,8.992,8.992,0,0,1-3.708.572,9.158,9.158,0,0,1-4.585-.838,2.726,2.726,0,0,1-1.328-2.2c-.016-.217-.07-.327-.359-.283-.259.041-8.791,1.437-10.516,1.728-.25.042-.308.107-.3.386a8.213,8.213,0,0,0,1.841,4.9,12.3,12.3,0,0,0,5.569,3.668,26.706,26.706,0,0,0,9.09,1.356q16.826,0,16.825-11.8a7.718,7.718,0,0,0-2.485-6.167" transform="translate(0 -7.828)" fill="#fff"/>
  </g>
</svg>

